<svg xmlns="http://www.w3.org/2000/svg" width="11" height="11" viewBox="0 0 11 11">
    <g fill="#FFF" fill-rule="nonzero">
        <path d="M5.5 0a.183.183 0 0 0-.183.183V2.62a.183.183 0 1 0 .366 0V.37a5.14 5.14 0 0 1 4.95 5.13A5.14 5.14 0 0 1 5.5 10.633 5.14 5.14 0 0 1 .367 5.5a5.1 5.1 0 0 1 1.497-3.623.183.183 0 1 0-.26-.26A5.465 5.465 0 0 0 0 5.5C0 8.533 2.467 11 5.5 11S11 8.533 11 5.5 8.533 0 5.5 0z"/>
        <path d="M5.235 6.148a.652.652 0 0 0 1.18-.436.652.652 0 0 0-.268-.477L3.774 3.518a.183.183 0 1 0-.256.256l1.717 2.374zm.697-.616a.287.287 0 1 1-.4.4L4.484 4.485l1.448 1.047z"/>
    </g>
</svg>
